<?xml version="1.0" encoding="UTF-8"?>
<svg width="752pt" height="752pt" version="1.1" viewBox="0 0 752 752" xmlns="http://www.w3.org/2000/svg">
 <defs>
  <clipPath id="a">
   <path d="m191 139.21h370v473.58h-370z"/>
  </clipPath>
 </defs>
 <g clip-path="url(#a)">
  <path d="m531.39 139.21h-310.79c-16.281 0-29.598 13.32-29.598 29.598v414.38c0 16.281 13.32 29.598 29.598 29.598h310.79c16.281 0 29.598-13.32 29.598-29.598v-414.38c0-16.277-13.316-29.598-29.598-29.598zm22.199 443.98c0 12.238-9.9609 22.199-22.199 22.199h-310.79c-12.238 0-22.195-9.957-22.195-22.199v-414.38c0-12.238 9.9609-22.199 22.199-22.199h310.79c12.234 0 22.195 9.9609 22.195 22.199z"/>
 </g>
 <path d="m265.11 506.12h221.79v7.3984h-221.79z"/>
 <path d="m265.11 453.7h221.79v7.3984h-221.79z"/>
 <path d="m308.19 339.52c7.9609 0 14.52-1.9688 19.711-5.8906 5.1797-3.9375 8.8789-9.9453 11.098-18.039l-14.52-4.6016c-1.2422 5.418-3.3008 9.3984-6.1719 11.941-2.8555 2.5156-6.2891 3.7891-10.258 3.7891-5.4023 0-9.7812-1.9961-13.156-5.9648-3.3906-3.9805-5.0625-10.656-5.0625-20.039 0-8.8359 1.7031-15.215 5.1367-19.18 3.418-3.9375 7.875-5.9062 13.379-5.9062 3.9805 0 7.3555 1.1094 10.152 3.3438 2.7812 2.2188 4.6172 5.2539 5.4766 9.1016l14.828-3.5352c-1.6875-5.9336-4.2188-10.492-7.5938-13.66-5.668-5.3555-13.039-8.0352-22.109-8.0352-10.375 0-18.766 3.4023-25.129 10.227-6.3789 6.8359-9.5586 16.414-9.5586 28.754 0 11.66 3.1836 20.867 9.5156 27.586 6.3242 6.7383 14.418 10.109 24.262 10.109z"/>
 <path d="m378.8 326.91c-4.5586 0-8.168-1.1406-10.848-3.4336-2.6797-2.293-4.4531-5.875-5.3281-10.789l-14.562 1.4219c0.97656 8.3008 3.9961 14.605 8.9961 18.941 5.0312 4.3359 12.223 6.4961 21.605 6.4961 6.4375 0 11.824-0.90234 16.133-2.707 4.3203-1.8047 7.668-4.5742 10.02-8.2734 2.3672-3.7148 3.5352-7.6953 3.5352-11.941 0-4.6914-0.97656-8.6289-2.9609-11.824-1.9688-3.1836-4.6914-5.6992-8.1992-7.5312-3.4766-1.8359-8.8789-3.625-16.16-5.3281-7.2812-1.7305-11.867-3.3906-13.762-4.9727-1.4805-1.2422-2.2188-2.7539-2.2188-4.5 0-1.9258 0.80078-3.4492 2.3828-4.6172 2.457-1.7773 5.8594-2.6797 10.211-2.6797 4.2031 0 7.3711 0.84375 9.4883 2.5 2.1172 1.6719 3.4766 4.4102 4.1133 8.2266l14.977-0.65234c-0.23828-6.8242-2.707-12.27-7.4141-16.34-4.6914-4.0703-11.707-6.1133-21.016-6.1133-5.6992 0-10.566 0.85938-14.594 2.5742-4.0117 1.7148-7.1055 4.2188-9.25 7.5195-2.1445 3.2852-3.2109 6.8242-3.2109 10.598 0 5.8594 2.2656 10.832 6.8242 14.934 3.2422 2.8867 8.8789 5.3281 16.902 7.3242 6.2461 1.5391 10.227 2.6328 12.004 3.2422 2.5586 0.91797 4.3516 1.9844 5.3711 3.2109 1.0352 1.2266 1.5391 2.7383 1.5391 4.4844 0 2.7383-1.2148 5.1211-3.6719 7.1484-2.4375 2.0625-6.0664 3.082-10.906 3.082z"/>
 <path d="m447.9 326.91c-4.543 0-8.1562-1.1406-10.832-3.4336-2.6797-2.293-4.4688-5.875-5.3438-10.789l-14.562 1.4219c0.97656 8.3008 3.9961 14.605 8.9961 18.941 5.0312 4.3359 12.238 6.4961 21.605 6.4961 6.4531 0 11.824-0.90234 16.133-2.707 4.3359-1.8047 7.668-4.5742 10.035-8.2734 2.3398-3.7148 3.5234-7.6953 3.5234-11.941 0-4.6914-0.97656-8.6289-2.9453-11.824-1.9688-3.1836-4.707-5.6992-8.2148-7.5312-3.4648-1.8359-8.8789-3.625-16.16-5.3281-7.2812-1.7305-11.867-3.3906-13.762-4.9727-1.4805-1.2422-2.2188-2.7539-2.2188-4.5 0-1.9258 0.8125-3.4492 2.3828-4.6172 2.4727-1.7773 5.8594-2.6797 10.211-2.6797 4.2188 0 7.3711 0.84375 9.4883 2.5 2.1172 1.6719 3.4922 4.4102 4.1289 8.2266l14.977-0.65234c-0.23828-6.8242-2.7227-12.27-7.4297-16.34-4.6758-4.0703-11.707-6.1133-21.016-6.1133-5.6992 0-10.551 0.85938-14.594 2.5742-4.0117 1.7148-7.1055 4.2188-9.25 7.5195-2.1445 3.2852-3.2109 6.8242-3.2109 10.598 0 5.8594 2.2656 10.832 6.8242 14.934 3.2422 2.8867 8.8789 5.3281 16.914 7.3242 6.2461 1.5391 10.227 2.6328 12.004 3.2422 2.5469 0.91797 4.3359 1.9844 5.3711 3.2109 1.0078 1.2266 1.5391 2.7383 1.5391 4.4844 0 2.7383-1.2148 5.1211-3.6719 7.1484-2.4414 2.0625-6.0859 3.082-10.922 3.082z"/>
</svg>
