<?xml version="1.0" encoding="UTF-8"?>
<svg width="752pt" height="752pt" version="1.1" viewBox="0 0 752 752" xmlns="http://www.w3.org/2000/svg">
 <path d="m414.53 162.89c5.6523 0 11.074 2.2461 15.07 6.2422l72.762 72.762c3.9961 3.9961 6.2422 9.4141 6.2422 15.066v74.051h56.828v161.02h-56.828v75.773c0 11.77-9.543 21.312-21.312 21.312h-279.41c-11.77 0-21.309-9.543-21.309-21.312v-383.6c0-11.77 9.5391-21.309 21.309-21.309zm-7.7461 14.207h-198.91c-3.9219 0-7.1016 3.1797-7.1016 7.1016v383.6c0 3.9258 3.1797 7.1055 7.1016 7.1055h279.41c3.9219 0 7.1055-3.1797 7.1055-7.1055v-75.773h-210.75v-161.02h210.75v-61.566h-80.512c-3.9219 0-7.1016-3.1797-7.1016-7.1016zm144.44 168.12h-253.37v132.6h253.37zm-61.297 32.051c3.5156 0 6.8672 0.41406 10.059 1.2461 3.1914 0.83594 6.5273 2.0039 10.012 3.5156l-4.625 11.148c-3.6055-1.4805-6.5898-2.5156-8.9492-3.1016s-4.6758-0.87891-6.9609-0.87891c-2.7109 0-4.793 0.63281-6.2422 1.8984-1.4492 1.2617-2.1719 2.9141-2.1719 4.9492 0 1.2617 0.29297 2.3633 0.87891 3.3047 0.58594 0.94141 1.5156 1.8516 2.7969 2.7305 1.2773 0.87891 4.3086 2.457 9.0859 4.7383 6.3203 3.0234 10.652 6.0508 12.996 9.0898 2.3438 3.0352 3.5156 6.7578 3.5156 11.168 0 6.1055-2.1953 10.914-6.5898 14.43-4.3945 3.5156-10.508 5.2734-18.336 5.2734-7.2148 0-13.598-1.3594-19.148-4.0703v-13.32c4.5625 2.0352 8.4258 3.4688 11.586 4.3008 3.1602 0.83203 6.0508 1.25 8.6719 1.25 3.1445 0 5.5547-0.60156 7.2383-1.8047 1.6797-1.2031 2.5195-2.9922 2.5195-5.3633 0-1.3281-0.37109-2.5078-1.1094-3.5391-0.74219-1.0352-1.8281-2.0273-3.2617-2.9844-1.4336-0.95703-4.3555-2.4805-8.7656-4.5781-4.1289-1.9414-7.2266-3.8086-9.293-5.5977-2.0664-1.7852-3.7148-3.8672-4.9492-6.2422s-1.8516-5.1484-1.8516-8.3242c0-5.9805 2.0273-10.684 6.082-14.105 4.0547-3.4219 9.6602-5.1328 16.812-5.1328zm-127.46 0.96875 14.57 24.328 14.289-24.328h15.445l-21.227 33.531 22.848 34.086h-16.371l-15.727-25.574-15.723 25.574h-15.355l22.43-34.871-20.996-32.746zm68.77 0v55.777h27.426v11.84h-41.762v-67.617zm61.078-126.3-71.324-71.32v74.621h73.191c-0.30859-1.2383-0.94922-2.3828-1.8672-3.3008z"/>
</svg>
