<?xml version="1.0" encoding="UTF-8"?>
<svg width="752pt" height="752pt" version="1.1" viewBox="0 0 752 752" xmlns="http://www.w3.org/2000/svg">
 <defs>
  <clipPath id="a">
   <path d="m182 139.21h388v473.58h-388z"/>
  </clipPath>
 </defs>
 <path d="m250.64 506.77v-31.492h34.156v31.492h13.824v-72.844h-13.824v29.719h-34.156v-29.719h-13.824v72.844z"/>
 <path d="m326.64 506.77h13.824v-60.473h21.77v-12.371h-56.621v12.371h21.027z"/>
 <path d="m383.05 467.06c0-2.9609-0.10547-6.4961-0.3125-10.625l-0.26562-5.3281-0.26562-5.2852h0.42969l1.6562 5.0156 1.6562 5.0781c1.4648 4.4844 2.6328 7.8438 3.5234 10.094l16.191 40.773h12.578l16.012-41.082c0.8125-2.1602 1.9688-5.5352 3.4648-10.094l1.6133-5.0781 1.6445-5.0781h0.42969l-0.29688 5.3867-0.26562 5.4453c-0.17578 4.0117-0.26562 7.6211-0.26562 10.789v39.707h13.824v-72.844h-23.012l-12.809 33.82c-0.94531 2.457-2.0859 5.8008-3.4023 10.035l-1.582 5.0156-1.5547 5.0156h-0.48828l-1.6445-5.0156-1.582-5.0781c-1.4805-4.3789-2.6328-7.7266-3.5234-10.094l-13.023-33.715h-22.523v72.844h13.824l-0.003906-39.703z"/>
 <path d="m515.19 494.38h-34.16v-60.457h-13.82v72.844h47.98z"/>
 <g clip-path="url(#a)">
  <path d="m569.62 568.55v-429.34h-342.99c-24.332 0-44.254 19.906-44.254 44.234v429.35h342.99c24.332 0 44.25-19.906 44.25-44.238zm-14.797-24.832h-357.64v-146.52h357.63v146.52zm-328.19-389.71h328.19v228.38h-357.64v-198.95c0-16.234 13.215-29.434 29.453-29.434zm-29.453 404.51h357.63v10.035c0 16.234-13.199 29.438-29.438 29.438l-328.19-0.003906z"/>
 </g>
 <path d="m271.49 235.72h209.04v14.801h-209.04z"/>
 <path d="m309.49 293.21h133.02v14.801h-133.02z"/>
</svg>
