<?xml version="1.0" encoding="UTF-8"?>
<svg width="752pt" height="752pt" version="1.1" viewBox="0 0 752 752" xmlns="http://www.w3.org/2000/svg">
 <path transform="matrix(4.7358 0 0 4.7358 139.21 139.21)" d="m18.96 11.204v77.592h62.08v-64.253l-13.339-13.339z" fill="none" stroke="#000" stroke-linejoin="round" stroke-miterlimit="10" stroke-width="4"/>
 <path transform="matrix(4.7358 0 0 4.7358 139.21 139.21)" d="m67.701 11.204 13.339 13.339h-13.339z" fill="none" stroke="#000" stroke-linejoin="round" stroke-miterlimit="10" stroke-width="4"/>
 <path d="m293.86 424.41h15.836v-99.145h-15.836v-13.855h49.84v13.855h-16.012v99.145h16.012v14.031h-49.84z"/>
 <path d="m399.67 345.23c20.691 0 28.074 15.293 28.074 15.293l0.35156-0.003906s-0.53516-2.8789-0.53516-6.8398v-28.789h-15.113v-13.496h32.566v109.58c0 2.6992 1.4414 3.9609 3.9609 3.9609h9.1797v13.496h-18.176c-8.0977 0-11.336-3.9609-11.336-9.8984v-1.2578c0-3.0586 0.53906-4.8594 0.53906-4.8594h-0.35938s-7.3789 18.172-30.77 18.172c-24.469 0-39.762-19.438-39.762-47.684-0.003906-28.961 16.906-47.676 41.379-47.676zm2.1562 80.25c13.496 0 26.27-9.7188 26.27-32.387 0-16.73-8.4531-32.566-25.73-32.566-14.578 0-26.27 11.699-26.27 32.387 0.007812 19.789 10.621 32.566 25.73 32.566z"/>
</svg>
