<?xml version="1.0" encoding="UTF-8"?>
<svg width="752pt" height="752pt" version="1.1" viewBox="0 0 752 752" xmlns="http://www.w3.org/2000/svg">
 <g>
  <path d="m492.41 387.57h-9.7852v-80.242l-75.191-84.043h-130.73c-20.102 0-36.457 16.355-36.457 36.457v232.53c0 20.102 16.355 36.457 36.457 36.457h169.47c20.105 0 36.457-16.355 36.457-36.457v-5.0781h9.7852c14.137 0 25.641-11.504 25.641-25.645v-48.336c-0.003906-14.137-11.508-25.641-25.645-25.641zm-82.254-146.45 56.512 63.16h-56.512zm62.613 251.15c0 14.664-11.93 26.598-26.598 26.598h-169.47c-14.664 0-26.598-11.93-26.598-26.598v-232.53c0-14.664 11.93-26.598 26.598-26.598h123.59v81h72.473v73.426h-108.1c-14.141 0-25.645 11.504-25.645 25.645v48.336c0 14.141 11.504 25.645 25.645 25.645h108.1zm35.422-30.723c0 8.6992-7.0781 15.785-15.781 15.785l-127.74-0.003906c-8.6992 0-15.785-7.0781-15.785-15.785l0.003906-48.332c0-8.6992 7.0781-15.785 15.785-15.785h127.74c8.6953 0 15.781 7.0781 15.781 15.785v48.336z"/>
  <path d="m392.75 417.22h-19.449v44.371h5.9023v-18.148h13.547c8.8281 0.0625 13.609-4.9062 13.609-13.109s-4.7812-13.113-13.609-13.113zm-1.9883 21.254h-11.555v-16.281h11.555c6.6484 0 9.6914 2.8594 9.6914 8.1406s-3.043 8.2031-9.6914 8.1406z"/>
  <path d="m432.52 436.61c-7.1445-1.6172-14.23-2.4219-14.23-7.8906 0-5.7812 4.9766-7.582 9.9414-7.582 6.0938 0 10.316 2.7344 10.996 9.0742h5.5977c-0.37109-9.7578-7.2734-14.043-16.344-14.043-8.0742 0-16.094 3.9766-16.094 12.988 0 8.1406 7.1445 10.191 14.227 11.742 7.0859 1.5547 14.168 2.6094 14.168 8.6992 0 6.3984-5.8984 8.0742-11.246 8.0742-6.707 0-12.926-3.2266-12.926-10.688h-5.5898c0 10.809 8.3906 15.66 18.328 15.66 8.082 0 17.34-3.7891 17.34-13.234 0-8.6992-7.082-11.184-14.168-12.801z"/>
  <path d="m469.06 417.22h-15.223v44.371h15.223c14.789 0 21.312-8.3906 21.312-23.238-0.003906-14.297-7.6406-21.133-21.312-21.133zm0.49609 39.395h-9.8203v-34.422h9.9414c10.875 0 14.789 6.3984 14.789 16.965 0.003906 16.344-10.867 17.457-14.91 17.457z"/>
 </g>
</svg>
