<?xml version="1.0" encoding="UTF-8"?>
<svg width="752pt" height="752pt" version="1.1" viewBox="0 0 752 752" xmlns="http://www.w3.org/2000/svg">
 <path d="m267 478.27c1.9609 0 3.8438-0.78125 5.2305-2.168 1.3906-1.3867 2.168-3.2695 2.168-5.2305v-30.266h35.668c7.668-0.019531 15.016-3.0742 20.438-8.4961 5.4219-5.4219 8.4766-12.77 8.4961-20.438v-5.4023c-0.019531-7.668-3.0742-15.016-8.4961-20.438-5.4219-5.4219-12.77-8.4766-20.438-8.4961h-43.066c-4.0859 0-7.3984 3.3125-7.3984 7.4023v86.133c0 1.9609 0.77734 3.8438 2.1641 5.2305 1.3906 1.3867 3.2734 2.168 5.2344 2.168zm7.3984-86.133h35.668c7.7891 0.039063 14.094 6.3438 14.133 14.133v5.4023c-0.039063 7.7891-6.3438 14.094-14.133 14.133h-35.668zm84.133 11.469h0.003906c0-6.9531 2.7578-13.625 7.668-18.547 4.9102-4.9258 11.57-7.7031 18.527-7.7227h24.27c7.2617-0.10938 14.293 2.5352 19.684 7.4023 2.9844 2.7969 3.1328 7.4844 0.33203 10.469-2.7969 2.9844-7.4883 3.1328-10.469 0.33203-2.582-2.4336-6-3.7852-9.5469-3.7734h-24.27c-5.9609 0.48047-10.551 5.457-10.551 11.434 0 5.9766 4.5898 10.953 10.551 11.434h21.531c10.938 0.52734 20.828 6.6719 26.148 16.242 5.3242 9.5703 5.3242 21.211 0 30.781-5.3203 9.5703-15.211 15.715-26.148 16.242h-18.867c-6.1211 0-12.082-1.9453-17.027-5.5469-4.9453-3.6016-8.6211-8.6797-10.5-14.504-0.59766-1.875-0.42969-3.9102 0.47266-5.6602 0.90234-1.7461 2.4609-3.0664 4.3359-3.6641 3.9023-1.2461 8.0781 0.90625 9.3242 4.8086 1.8438 5.8359 7.2734 9.793 13.395 9.7695h18.871-0.003906c5.75-0.38281 10.906-3.6719 13.676-8.7266 2.7734-5.0508 2.7734-11.168 0-16.219-2.7695-5.0547-7.9258-8.3438-13.676-8.7266h-21.531c-6.8789-0.015625-13.477-2.7305-18.375-7.5625-4.8945-4.8281-7.7031-11.383-7.8203-18.262zm106.26 74.664h43.066c7.6758 0 15.035-3.0469 20.461-8.4727 5.4258-5.4297 8.4727-12.785 8.4727-20.461v-43.066c0-7.6719-3.0469-15.031-8.4727-20.457-5.4258-5.4258-12.785-8.4766-20.461-8.4766h-43.066c-4.0859 0-7.3984 3.3125-7.3984 7.4023v86.133c0 1.9609 0.78125 3.8438 2.168 5.2305 1.3867 1.3867 3.2695 2.168 5.2305 2.168zm7.3984-86.133h35.668c3.75 0 7.3438 1.4883 9.9961 4.1406 2.6484 2.6484 4.1367 6.2461 4.1367 9.9922v43.066c0 3.75-1.4883 7.3438-4.1367 9.9961-2.6523 2.6484-6.2461 4.1367-9.9961 4.1367h-35.664zm103.08-54.387h-58.676v-121.8c0-11.773-4.6797-23.066-13.004-31.395-8.3281-8.3242-19.621-13.004-31.395-13.004h-169.45c-0.94531 0.003906-1.8789 0.20703-2.7383 0.59375-0.34375 0.125-0.66797 0.30078-0.96484 0.51562-0.44531 0.23047-0.86719 0.50391-1.2578 0.81641l-119.13 107.66c-0.54688 0.50781-1 1.1094-1.332 1.7773l-0.44531 0.59375v-0.003906c-0.38672 0.94141-0.58594 1.9453-0.58984 2.9609v249.59c0 11.773 4.6758 23.066 13.004 31.395 8.3242 8.3242 19.617 13.004 31.395 13.004h251.52c11.773 0 23.066-4.6797 31.395-13.004 8.3242-8.3281 13.004-19.621 13.004-31.395v-18.203h58.68c1.9609 0 3.8438-0.78125 5.2305-2.168 1.3867-1.3906 2.168-3.2695 2.168-5.2344v-165.31c0-1.9609-0.78125-3.8438-2.168-5.2305-1.3867-1.3906-3.2695-2.168-5.2305-2.168zm-279.93-142.15v54.02-0.003907c0 7.8516-3.1172 15.379-8.668 20.93s-13.078 8.6719-20.93 8.6719h-62.898zm206.45 340.39c0 7.8477-3.1172 15.379-8.668 20.93-5.5508 5.5508-13.082 8.668-20.93 8.668h-251.59c-7.8516 0-15.379-3.1172-20.93-8.668-5.5508-5.5508-8.6719-13.082-8.6719-20.93v-241.97h74.738c11.773 0 23.066-4.6758 31.395-13.004 8.3242-8.3242 13.004-19.617 13.004-31.395v-63.266h162.05c7.8477 0 15.379 3.1172 20.93 8.668 5.5508 5.5508 8.668 13.082 8.668 20.93v121.8h-280.67c-4.0859 0-7.3984 3.3125-7.3984 7.3984v165.31c0 1.9648 0.77734 3.8438 2.168 5.2344 1.3867 1.3867 3.2695 2.168 5.2305 2.168h280.67zm66.078-33.004h-339.35v-150.44h339.35z"/>
</svg>
